PathFileType	4	(X/Y/Z)	C:\Users\Willi\SynologyDrive\Deimel_MSc_Deadlift\Athlete_03\Athlete_3_22_07_06\dl_85\marker_experimental.trc
DataRate	CameraRate	NumFrames	NumMarkers	Units	OrigDataRate	OrigDataStartFrame	OrigNumFrames
200.000000	200.000000	4	59	mm	200.000000	598	1597
Frame#	Time	BR			GLAB			RFHD			LFHD			C7			T6			SPINMOL			SPINM2			SPINM3			BELTOL			BELT2			BELT3			SACROL			SACR2			SACR3			LTHOL			LTH2			LTH3			LSHAOL			LSHA2			LSHA3			LHEE			LTOE			LM5			RTHOL			RTH2			RTH3			RSHAOL			RSHA2			RSHA3			RHEE			RTOE			RM5			STRN			XIPH			LACR			LUAOL			LUA3			LLAOL			LLA2			LLA3			LWRU			RACR			RUAOL			RUA2			RUA3			RLAOL			RLA2			RLA3			RWRU			LUA2			BL			T12			USERMO0			USERMO1			USERMO2			USERMO3			USERMO4			USERMO5			
		X1	Y1	Z1	X2	Y2	Z2	X3	Y3	Z3	X4	Y4	Z4	X5	Y5	Z5	X6	Y6	Z6	X7	Y7	Z7	X8	Y8	Z8	X9	Y9	Z9	X10	Y10	Z10	X11	Y11	Z11	X12	Y12	Z12	X13	Y13	Z13	X14	Y14	Z14	X15	Y15	Z15	X16	Y16	Z16	X17	Y17	Z17	X18	Y18	Z18	X19	Y19	Z19	X20	Y20	Z20	X21	Y21	Z21	X22	Y22	Z22	X23	Y23	Z23	X24	Y24	Z24	X25	Y25	Z25	X26	Y26	Z26	X27	Y27	Z27	X28	Y28	Z28	X29	Y29	Z29	X30	Y30	Z30	X31	Y31	Z31	X32	Y32	Z32	X33	Y33	Z33	X34	Y34	Z34	X35	Y35	Z35	X36	Y36	Z36	X37	Y37	Z37	X38	Y38	Z38	X39	Y39	Z39	X40	Y40	Z40	X41	Y41	Z41	X42	Y42	Z42	X43	Y43	Z43	X44	Y44	Z44	X45	Y45	Z45	X46	Y46	Z46	X47	Y47	Z47	X48	Y48	Z48	X49	Y49	Z49	X50	Y50	Z50	X51	Y51	Z51	X52	Y52	Z52	X53	Y53	Z53	X54	Y54	Z54	X55	Y55	Z55	X56	Y56	Z56	X57	Y57	Z57	X58	Y58	Z58	X59	Y59	Z59	

599	2.99	207.1930847167969	673.064208984375	-97.37970733642574	193.8196563720703	1530.378173828125	-1206.641723632812	141.4009246826172	1565.38427734375	-1129.676391601562	143.2948303222656	1566.281616210938	-1288.837036132812	-52.88485717773438	1452.176025390625	-1211.108520507812	-80.80696868896484	1231.494384765625	-1218.582397460938	-79.79573059082031	1203.044799804688	-1222.107543945312	-79.91325378417969	1144.419677734375	-1167.4970703125	-69.70549774169922	1142.24951171875	-1216.090209960938	-68.67955780029297	1067.746459960938	-1216.834594726562	-54.04116058349609	1009.880310058594	-1163.886840820312	-58.67171096801758	1006.548583984375	-1213.728759765625	-48.15945816040039	968.4580078125001	-1233.236572265625	-37.44638442993164	977.6673583984376	-1183.716796875	-72.86667633056641	922.5554199218751	-1192.70751953125	92.18351745605469	765.0944213867189	-1434.932373046875	55.75981521606445	697.4047241210939	-1412.207153320312	99.63420104980469	703.7785644531251	-1435.508666992188	91.99749755859375	349.1350708007814	-1444.569458007812	57.18551635742188	279.0423889160157	-1434.23779296875	103.7794876098633	288.3506774902345	-1444.325561523438	39.44371032714844	66.5736846923829	-1370.90283203125	249.1818542480469	74.52892303466805	-1378.880004882812	206.8331298828125	52.47757720947275	-1486.18798828125	78.43682861328125	740.9363403320314	-997.0682983398438	125.1891250610352	679.8132934570314	-974.990478515625	80.27745819091797	678.6265869140626	-997.4571533203125	67.74154663085938	341.5755920410157	-986.4027099609375	115.1059112548828	278.0714721679688	-978.5075073242188	68.06143951416016	279.8134460449219	-994.5061645507812	46.60091400146484	64.36469268798835	-1071.94873046875	253.3867492675781	67.09059143066412	-1039.675537109375	200.7511901855469	66.41110229492193	-943.600830078125	104.6169815063477	1387.840209960938	-1218.913818359375	193.9141998291016	1264.0712890625	-1216.39599609375	23.60734558105469	1359.856567382812	-1427.862426757812	56.943359375	1211.383178710938	-1488.523071289062	100.9216613769531	1164.9326171875	-1494.328979492188	187.8327941894531	949.2124633789064	-1475.2978515625	188.7794952392578	884.5591430664064	-1485.425170898438	217.0535278320312	899.2282104492189	-1447.1806640625	226.1825866699219	799.9272460937501	-1464.599975585938	35.59426879882812	1363.557373046875	-1010.601745605469	99.04199981689453	1188.828979492188	-964.3489379882811	142.0617370605469	1144.299926757812	-986.1705322265624	111.5111389160156	1125.605834960938	-950.2445068359374	192.7501068115234	938.9259033203126	-968.1287231445311	220.4232025146484	890.4403686523439	-1000.6142578125	201.2049560546875	876.6450195312501	-955.2783203125	217.9607543945312	799.3197021484376	-958.5834350585938	52.30142974853516	1147.242309570312	-1495.13671875	209.6109466552734	658.4609375000001	-2319.68017578125	-53.07281875610352	1105.939208984375	-1216.0556640625	0.07210150361061096	0.01133059989660979	-0.08862809836864471	0.258886992931366	0.1217169985175133	-0.1083960011601448	0.0411531999707222	0.02035110071301461	-0.04925309866666794	0.1711400002241135	1.645730018615723	-2.096689939498901	2.027250051498413	2.894700050354004	-1.959050059318542	2.919470071792603	0	0	
600	2.995	207.1862030029297	673.13916015625	-97.39682769775386	193.3613739013672	1530.298950195312	-1206.787719726562	140.9759216308594	1565.307373046875	-1129.806396484375	142.809814453125	1566.197875976562	-1288.969360351562	-53.33089447021484	1452.071044921875	-1211.169067382812	-81.12924194335938	1231.348022460938	-1218.619506835938	-80.09311676025391	1202.891235351562	-1222.136352539062	-80.16244506835938	1144.280151367188	-1167.513549804688	-69.95144653320312	1142.107543945312	-1216.107055664062	-68.86095428466797	1067.615112304688	-1216.827758789062	-54.17703628540039	1009.768920898438	-1163.868286132812	-58.8119010925293	1006.421508789063	-1213.71044921875	-48.28249740600586	968.3676757812501	-1233.21630859375	-37.56188583374023	977.5846557617189	-1183.692749023438	-72.95803833007812	922.4564208984376	-1192.669921875	92.12014770507812	765.0880737304689	-1434.906372070312	55.71942901611328	697.3899536132814	-1412.173461914062	99.61196899414062	703.7592773437501	-1435.477661132812	92.02002716064453	349.133026123047	-1444.557006835938	57.20946884155273	279.0457458496095	-1434.21826171875	103.8165054321289	288.340057373047	-1444.303955078125	39.44797515869141	66.57782745361337	-1370.8974609375	249.1824493408203	74.52793884277352	-1378.880126953125	206.8338470458984	52.47817993164072	-1486.18798828125	78.41319274902344	740.9330444335939	-997.040771484375	125.1885986328125	679.8257446289064	-974.9679565429688	80.27467346191406	678.6233520507814	-997.4318237304688	67.77362060546875	341.5680847167969	-986.4007568359375	115.1287460327148	278.0620422363282	-978.5034790039062	68.11061859130859	279.7867126464844	-994.5309448242188	46.60513687133789	64.36900329589851	-1071.952758789062	253.3881225585938	67.08554077148443	-1039.674560546875	200.7531127929688	66.41242980957037	-943.602294921875	104.2041168212891	1387.824584960938	-1219.008056640625	193.5625915527344	1264.109619140625	-1216.493408203125	23.1447582244873	1359.7841796875	-1427.938110351562	56.56218338012695	1211.316284179688	-1488.58154296875	100.5752563476562	1164.889892578125	-1494.388793945312	187.6194763183594	949.2365112304689	-1475.3662109375	188.5967559814453	884.5762329101564	-1485.476806640625	216.8791809082031	899.2692260742189	-1447.246948242188	226.07080078125	799.9754638671876	-1464.642578125	35.22955703735352	1363.515869140625	-1010.67529296875	98.75732421875	1188.8173828125	-964.3991088867186	141.7995147705078	1144.3017578125	-986.2147827148436	111.2452011108398	1125.59521484375	-950.2915039062499	192.5816497802734	938.9521484375001	-968.1197509765624	220.2947998046875	890.4875488281251	-1000.599731445312	201.0701141357422	876.6809692382814	-955.2572631835938	217.8718414306641	799.3625488281251	-958.578857421875	51.95473098754883	1147.170654296875	-1495.1884765625	209.5315856933594	658.5519409179689	-2319.699462890625	-53.184326171875	1105.736694335938	-1216.140502929688	0.07140599936246872	0.01144149992614985	-0.08649740368127823	0.2906459867954254	0.1179110035300255	-0.1074500009417534	0.04028350114822388	0.01817139983177185	-0.04800419881939888	0.1668200045824051	1.633620023727417	-2.098629951477051	2.028700113296509	2.893970012664795	-1.958379983901977	2.919770002365112	0	0	
601	3	207.176025390625	673.2055053710938	-97.41297912597652	192.8879699707031	1530.219970703125	-1206.93310546875	140.5373992919922	1565.228881835938	-1129.933959960938	142.3079376220703	1566.113037109375	-1289.099487304688	-53.78765106201172	1451.960205078125	-1211.224975585938	-81.45611572265625	1231.1953125	-1218.649780273438	-80.39421081542969	1202.731567382812	-1222.158447265625	-80.41234588623047	1144.134033203125	-1167.523681640625	-70.20011138916016	1141.959716796875	-1216.1181640625	-69.04398345947266	1067.479736328125	-1216.816040039062	-54.31301498413086	1009.653015136719	-1163.845947265625	-58.95242691040039	1006.290161132813	-1213.688354492188	-48.40451812744141	968.2730102539064	-1233.192504882812	-37.67685317993164	977.4957885742189	-1183.664916992188	-73.04756164550781	922.3497924804689	-1192.629272460938	92.05673980712891	765.0797119140626	-1434.87841796875	55.68021774291992	697.3734130859376	-1412.135498046875	99.59830474853516	703.7337036132814	-1435.440551757812	92.04457092285156	349.1304931640626	-1444.540283203125	57.23551559448242	279.0498657226564	-1434.194946289062	103.8562164306641	288.3290405273439	-1444.277709960938	39.45230865478516	66.58179473876962	-1370.891357421875	249.1830902099609	74.5266876220704	-1378.87939453125	206.8341674804688	52.47937011718759	-1486.186889648438	78.39125823974609	740.9248046875001	-997.0164794921875	125.1897583007812	679.8336181640626	-974.9481201171875	80.27458190917969	678.6156005859376	-997.4110107421875	67.81062316894531	341.5599365234376	-986.3992919921875	115.1572647094727	278.0496215820313	-978.5023193359375	68.15517425537109	279.7682800292969	-994.5512084960938	46.60908889770508	64.37129974365241	-1071.956665039062	253.3902130126953	67.08168029785162	-1039.674560546875	200.7552490234375	66.41431427001959	-943.6038818359375	103.7832870483398	1387.808715820312	-1219.097290039062	193.2086944580078	1264.150390625	-1216.586059570312	22.67727470397949	1359.707397460938	-1428.008544921875	56.17780303955078	1211.246459960938	-1488.635009765625	100.2228012084961	1164.843627929688	-1494.441284179688	187.4002990722656	949.2571411132814	-1475.43017578125	188.4112243652344	884.5904541015626	-1485.526123046875	216.7021331787109	899.3074951171876	-1447.310424804688	225.9560089111328	800.0206909179689	-1464.68359375	34.86117935180664	1363.472290039062	-1010.744689941406	98.46990966796875	1188.803833007812	-964.4456176757811	141.5333709716797	1144.300537109375	-986.2575683593749	110.9777755737305	1125.582275390625	-950.3359985351561	192.4102783203125	938.9752197265626	-968.1086425781249	220.1624755859375	890.5316772460939	-1000.583801269531	200.9316101074219	876.7141113281251	-955.2337646484375	217.7777099609375	799.4025878906251	-958.5725708007812	51.60564422607422	1147.09619140625	-1495.23486328125	209.4488525390625	658.6353149414064	-2319.71728515625	-53.31446075439453	1105.536376953125	-1216.211669921875	0.07074519991874695	0.01155409961938859	-0.08414089679718018	0.3218970000743866	0.1144540011882782	-0.1063190028071403	0.03932369872927666	0.01615200005471707	-0.04710280150175095	0.1627189964056015	1.613369941711426	-2.099829912185669	2.02947998046875	2.893280029296875	-1.957579970359802	2.920190095901489	0	0	
602	3.005	207.1634063720703	673.2627563476562	-97.42812347412105	192.4000854492188	1530.14453125	-1207.07666015625	140.0848388671875	1565.151977539062	-1130.058349609375	141.7901458740234	1566.029174804688	-1289.226684570312	-54.25336074829102	1451.844116210938	-1211.276123046875	-81.78673553466797	1231.037719726562	-1218.673706054688	-80.69861602783203	1202.5673828125	-1222.174194335938	-80.66304779052734	1143.982788085938	-1167.528198242188	-70.45151519775391	1141.8076171875	-1216.123901367188	-69.22908782958984	1067.341674804688	-1216.800537109375	-54.4499397277832	1009.533813476563	-1163.820922851562	-59.09421157836914	1006.156066894531	-1213.66357421875	-48.52679824829102	968.1749877929689	-1233.166381835938	-37.79248428344727	977.4019775390626	-1183.63427734375	-73.13675689697266	922.2369995117189	-1192.586547851562	91.99254608154297	765.0689697265626	-1434.848876953125	55.64155197143555	697.3547363281251	-1412.093872070312	99.59101867675781	703.7027587890626	-1435.398315429688	92.07122802734375	349.1273803710939	-1444.52001953125	57.26338577270508	279.0543518066407	-1434.168701171875	103.8984069824219	288.3176269531251	-1444.247802734375	39.4566535949707	66.58548736572274	-1370.885009765625	249.1837768554688	74.5251998901368	-1378.877807617188	206.8340759277344	52.48112487792978	-1486.184936523438	78.36982727050781	740.9114379882814	-996.9955444335938	125.1915969848633	679.8368530273439	-974.9314575195312	80.27610015869141	678.6033935546876	-997.3947143554688	67.85228729248047	341.5512390136719	-986.3978271484375	115.1913757324219	278.0344238281251	-978.50390625	68.19516754150391	279.7578125000001	-994.56640625	46.61275100708008	64.37159729003913	-1071.960571289062	253.3929748535156	67.07900238037115	-1039.67529296875	200.7576141357422	66.41677093505865	-943.605712890625	103.3559112548828	1387.792846679688	-1219.180908203125	192.8535766601562	1264.19384765625	-1216.673095703125	22.20569038391113	1359.626708984375	-1428.073486328125	55.78837203979492	1211.173706054688	-1488.683715820312	99.86178588867188	1164.793701171875	-1494.4873046875	187.1723327636719	949.2732543945314	-1475.489501953125	188.2216339111328	884.6016235351564	-1485.573974609375	216.5207366943359	899.3429565429689	-1447.3720703125	225.8367767333984	800.0628051757814	-1464.723510742188	34.48944473266602	1363.426879882812	-1010.8095703125	98.18013000488281	1188.78857421875	-964.4885864257811	141.2637176513672	1144.297119140625	-986.2990112304686	110.709846496582	1125.567504882812	-950.3784179687499	192.236572265625	938.9959106445314	-968.0966796874999	220.0258483886719	890.5728149414064	-1000.567810058594	200.7895660400391	876.7448730468751	-955.209228515625	217.6782684326172	799.4400634765626	-958.5651245117188	51.25175857543945	1147.019287109375	-1495.276245117188	209.3634490966797	658.7103881835939	-2319.7333984375	-53.46722030639648	1105.341796875	-1216.266967773438	0.07018379867076874	0.0116659002378583	-0.08167850226163864	0.3512890040874481	0.111505001783371	-0.1050250008702278	0.038298599421978	0.01434329990297556	-0.04661700129508972	0.1589930057525635	1.584990024566651	-2.100450038909912	2.02987003326416	2.892640113830566	-1.956869959831238	2.92074990272522	0	0	
